<svg width="150" height="150" viewBox="0 0 150 150" fill="none" xmlns="http://www.w3.org/2000/svg">
<path d="M124.008 147.656H25.9922C23.9841 147.657 21.9977 147.24 20.1588 146.433C18.32 145.626 16.6686 144.446 15.3094 142.968C13.9501 141.489 12.9125 139.745 12.2621 137.845C11.6118 135.945 11.363 133.931 11.5313 131.93L20.6368 23.6719H129.363L138.469 131.93C138.637 133.931 138.388 135.945 137.738 137.845C137.088 139.745 136.05 141.489 134.691 142.968C133.331 144.446 131.68 145.626 129.841 146.433C128.002 147.24 126.016 147.657 124.008 147.656Z" fill="#08C25E"/>
<path d="M124.008 148.828H25.9922C23.8222 148.828 21.6758 148.378 19.6887 147.506C17.7016 146.634 15.9171 145.359 14.4481 143.762C12.979 142.165 11.8574 140.281 11.1543 138.228C10.4511 136.175 10.1816 133.998 10.3629 131.836L19.4684 23.5781C19.4931 23.2846 19.6274 23.0113 19.8446 22.8124C20.0617 22.6135 20.3458 22.5036 20.6403 22.5046H129.367C129.661 22.5036 129.945 22.6135 130.163 22.8124C130.38 23.0113 130.514 23.2846 130.539 23.5781L139.644 131.836C139.826 133.999 139.556 136.176 138.852 138.229C138.149 140.283 137.026 142.168 135.557 143.765C134.087 145.362 132.302 146.637 130.314 147.508C128.326 148.38 126.178 148.829 124.008 148.828ZM21.7137 24.8437L12.6985 132.028C12.5437 133.868 12.7726 135.719 13.3704 137.466C13.9683 139.212 14.9222 140.816 16.1717 142.175C17.4213 143.533 18.9393 144.618 20.6298 145.36C22.3202 146.102 24.1462 146.485 25.9922 146.484H124.008C125.854 146.485 127.68 146.102 129.37 145.36C131.061 144.618 132.579 143.533 133.828 142.175C135.078 140.816 136.032 139.212 136.63 137.466C137.228 135.719 137.456 133.868 137.302 132.028L128.286 24.8437H21.7137Z" fill="#1E1E1E"/>
<path d="M129.363 23.6719H114.621V12.2812L123.891 19.4414L129.363 23.6719Z" fill="#08C25E"/>
<path d="M129.363 24.8437H114.621C114.31 24.8437 114.012 24.7202 113.792 24.5005C113.573 24.2807 113.449 23.9826 113.449 23.6718V12.2812C113.449 12.0622 113.51 11.8475 113.626 11.6615C113.742 11.4755 113.908 11.3257 114.104 11.2291C114.301 11.1325 114.52 11.0929 114.738 11.1148C114.956 11.1367 115.164 11.2192 115.337 11.3531L130.078 22.7449C130.272 22.8945 130.413 23.1008 130.484 23.3349C130.554 23.5691 130.549 23.8194 130.47 24.0507C130.391 24.2821 130.242 24.4829 130.043 24.6251C129.844 24.7673 129.605 24.8437 129.361 24.8437H129.363ZM115.793 22.4999H125.931L115.793 14.6671V22.4999Z" fill="#1E1E1E"/>
<path d="M35.3789 12.2812V23.6719H20.6367L26.1094 19.4414L35.3789 12.2812Z" fill="#08C25E"/>
<path d="M35.3789 24.8437H20.6367C20.3924 24.8433 20.1543 24.7665 19.9558 24.6241C19.7573 24.4817 19.6083 24.2809 19.5295 24.0496C19.4507 23.8184 19.4462 23.5683 19.5166 23.3344C19.5869 23.1004 19.7286 22.8943 19.9218 22.7449L34.6628 11.3531C34.8362 11.2192 35.0437 11.1367 35.2616 11.1148C35.4796 11.0929 35.6993 11.1325 35.8959 11.2291C36.0924 11.3257 36.258 11.4755 36.3737 11.6615C36.4895 11.8475 36.5508 12.0622 36.5507 12.2812V23.6718C36.5507 23.9826 36.4273 24.2807 36.2075 24.5005C35.9877 24.7202 35.6897 24.8437 35.3789 24.8437ZM24.0691 22.4999H34.207V14.6671L24.0691 22.4999Z" fill="#1E1E1E"/>
<path d="M123.891 2.34375L114.621 12.2812V23.6719H35.3789V12.2812L26.1094 2.34375H123.891Z" fill="#007536"/>
<path d="M114.621 24.8438H35.3789C35.0681 24.8438 34.77 24.7203 34.5502 24.5005C34.3305 24.2807 34.207 23.9827 34.207 23.6719V12.743L25.2527 3.14297C25.097 2.97603 24.9935 2.76727 24.9548 2.54231C24.9161 2.31735 24.944 2.086 25.035 1.87666C25.126 1.66731 25.2761 1.4891 25.467 1.3639C25.6578 1.23869 25.8811 1.17196 26.1093 1.17188H123.891C124.119 1.17196 124.342 1.23869 124.533 1.3639C124.724 1.4891 124.874 1.66731 124.965 1.87666C125.056 2.086 125.084 2.31735 125.045 2.54231C125.006 2.76727 124.903 2.97603 124.747 3.14297L115.793 12.743V23.6719C115.793 23.9827 115.669 24.2807 115.45 24.5005C115.23 24.7203 114.932 24.8438 114.621 24.8438ZM36.5507 22.5H113.449V12.2812C113.449 11.9845 113.562 11.6989 113.764 11.482L121.194 3.51328H28.8058L36.2355 11.482C36.438 11.6989 36.5506 11.9845 36.5507 12.2812V22.5Z" fill="#1E1E1E"/>
<path d="M123.891 2.34375V19.4414L114.621 12.2813L123.891 2.34375Z" fill="#08C25E"/>
<path d="M123.891 20.6133C123.631 20.6134 123.379 20.5272 123.173 20.3684L113.906 13.2083C113.777 13.1086 113.671 12.9831 113.593 12.8398C113.515 12.6966 113.468 12.5387 113.455 12.3762C113.442 12.2138 113.462 12.0503 113.516 11.8964C113.569 11.7424 113.655 11.6013 113.766 11.4821L123.034 1.54458C123.194 1.37267 123.403 1.25302 123.632 1.20118C123.862 1.14935 124.101 1.16773 124.32 1.25394C124.539 1.34014 124.727 1.49018 124.859 1.68455C124.992 1.87892 125.062 2.10863 125.063 2.3438V19.4415C125.063 19.7523 124.939 20.0503 124.719 20.2701C124.5 20.4899 124.201 20.6133 123.891 20.6133ZM116.355 12.1395L122.719 17.0614V5.31802L116.355 12.1395Z" fill="#1E1E1E"/>
<path d="M35.3789 12.2813L26.1094 19.4414V2.34375L35.3789 12.2813Z" fill="#08C25E"/>
<path d="M26.1094 20.6134C25.7986 20.6134 25.5005 20.4899 25.2807 20.2701C25.061 20.0504 24.9375 19.7523 24.9375 19.4415V2.34383C24.9373 2.10841 25.0081 1.87839 25.1405 1.68376C25.273 1.48912 25.461 1.33889 25.68 1.25263C25.8991 1.16638 26.139 1.1481 26.3686 1.20018C26.5982 1.25226 26.8068 1.37228 26.9672 1.54461L36.2355 11.4845C36.3467 11.6037 36.4317 11.7448 36.4852 11.8988C36.5387 12.0527 36.5595 12.2161 36.5463 12.3786C36.533 12.541 36.4861 12.6989 36.4083 12.8422C36.3306 12.9855 36.2239 13.111 36.0949 13.2106L26.8266 20.3708C26.6209 20.5288 26.3687 20.6141 26.1094 20.6134ZM27.2813 5.31805V17.0556L33.6445 12.1395L27.2813 5.31805Z" fill="#1E1E1E"/>
<path d="M75 85.6874C66.9711 85.6784 59.2735 82.4849 53.5962 76.8076C47.9189 71.1303 44.7254 63.4328 44.7164 55.4038V44.8979C44.7164 44.5871 44.8399 44.2891 45.0597 44.0693C45.2794 43.8495 45.5775 43.7261 45.8883 43.7261C46.1991 43.7261 46.4972 43.8495 46.7169 44.0693C46.9367 44.2891 47.0602 44.5871 47.0602 44.8979V55.4038C47.0602 62.8139 50.0038 69.9205 55.2436 75.1603C60.4833 80.4 67.5899 83.3437 75 83.3437C82.4101 83.3437 89.5167 80.4 94.7565 75.1603C99.9962 69.9205 102.94 62.8139 102.94 55.4038V44.8979C102.94 44.5871 103.063 44.2891 103.283 44.0693C103.503 43.8495 103.801 43.7261 104.112 43.7261C104.423 43.7261 104.721 43.8495 104.94 44.0693C105.16 44.2891 105.284 44.5871 105.284 44.8979V55.4038C105.275 63.4328 102.081 71.1303 96.4038 76.8076C90.7265 82.4849 83.029 85.6784 75 85.6874Z" fill="#1E1E1E"/>
<path d="M104.112 33.6621C103.001 33.6621 101.914 33.9916 100.991 34.6089C100.067 35.2262 99.3466 36.1036 98.9214 37.1302C98.4962 38.1567 98.385 39.2863 98.6017 40.3761C98.8185 41.4659 99.3536 42.4669 100.139 43.2526C100.925 44.0383 101.926 44.5733 103.016 44.7901C104.106 45.0069 105.235 44.8956 106.262 44.4704C107.288 44.0452 108.166 43.3251 108.783 42.4013C109.4 41.4774 109.73 40.3912 109.73 39.2801C109.73 37.7901 109.138 36.3611 108.084 35.3076C107.031 34.254 105.602 33.6621 104.112 33.6621Z" fill="white"/>
<path d="M104.112 46.0699C102.769 46.0699 101.456 45.6717 100.34 44.9256C99.2229 44.1796 98.3527 43.1191 97.8387 41.8784C97.3248 40.6378 97.1904 39.2725 97.4524 37.9554C97.7144 36.6383 98.361 35.4285 99.3106 34.4789C100.26 33.5294 101.47 32.8827 102.787 32.6207C104.104 32.3587 105.469 32.4932 106.71 33.0071C107.951 33.521 109.011 34.3913 109.757 35.5078C110.503 36.6244 110.902 37.9372 110.902 39.2801C110.9 41.0803 110.184 42.8062 108.911 44.0792C107.638 45.3521 105.912 46.0681 104.112 46.0699ZM104.112 34.834C103.232 34.834 102.373 35.0947 101.642 35.5833C100.91 36.0718 100.341 36.7662 100.004 37.5786C99.6676 38.3911 99.5795 39.285 99.7511 40.1475C99.9226 41.0099 100.346 41.8021 100.968 42.4239C101.59 43.0457 102.382 43.4692 103.244 43.6407C104.107 43.8123 105.001 43.7243 105.813 43.3877C106.626 43.0512 107.32 42.4814 107.809 41.7502C108.297 41.019 108.558 40.1594 108.558 39.2801C108.556 38.1015 108.087 36.9717 107.254 36.1383C106.42 35.3049 105.29 34.8358 104.112 34.834Z" fill="#1E1E1E"/>
<path d="M45.8882 33.6621C44.7771 33.6621 43.6909 33.9916 42.7671 34.6089C41.8432 35.2262 41.1231 36.1036 40.6979 37.1302C40.2727 38.1567 40.1614 39.2863 40.3782 40.3761C40.595 41.4659 41.13 42.4669 41.9157 43.2526C42.7014 44.0383 43.7024 44.5733 44.7922 44.7901C45.882 45.0069 47.0116 44.8956 48.0381 44.4704C49.0647 44.0452 49.9421 43.3251 50.5594 42.4013C51.1767 41.4774 51.5062 40.3912 51.5062 39.2801C51.5062 37.7901 50.9143 36.3611 49.8607 35.3076C48.8072 34.254 47.3782 33.6621 45.8882 33.6621Z" fill="white"/>
<path d="M45.8882 46.0699C44.5453 46.0699 43.2326 45.6717 42.116 44.9256C40.9994 44.1796 40.1291 43.1191 39.6152 41.8784C39.1013 40.6378 38.9669 39.2725 39.2289 37.9554C39.4908 36.6383 40.1375 35.4285 41.0871 34.4789C42.0367 33.5294 43.2465 32.8827 44.5636 32.6207C45.8807 32.3587 47.2459 32.4932 48.4866 33.0071C49.7273 33.521 50.7877 34.3913 51.5338 35.5078C52.2799 36.6244 52.6781 37.9372 52.6781 39.2801C52.6762 41.0803 51.9603 42.8062 50.6873 44.0792C49.4144 45.3521 47.6884 46.0681 45.8882 46.0699ZM45.8882 34.834C45.0089 34.834 44.1493 35.0947 43.4181 35.5833C42.687 36.0718 42.1171 36.7662 41.7806 37.5786C41.4441 38.3911 41.356 39.285 41.5276 40.1475C41.6991 41.0099 42.1226 41.8021 42.7444 42.4239C43.3662 43.0457 44.1584 43.4692 45.0208 43.6407C45.8833 43.8123 46.7773 43.7243 47.5897 43.3877C48.4021 43.0512 49.0965 42.4814 49.585 41.7502C50.0736 41.019 50.3343 40.1594 50.3343 39.2801C50.3325 38.1015 49.8634 36.9717 49.03 36.1383C48.1966 35.3049 47.0668 34.8358 45.8882 34.834Z" fill="#1E1E1E"/>
</svg>
