<svg width="150" height="150" viewBox="0 0 150 150" fill="none" xmlns="http://www.w3.org/2000/svg">
<path d="M119.531 145.312H30.4688C25.2911 145.312 21.0938 141.115 21.0938 135.938V16.4062H128.906V135.938C128.906 141.115 124.709 145.312 119.531 145.312Z" fill="#555A6E"/>
<path d="M21.0938 16.4062H128.906V35.1562H21.0938V16.4062Z" fill="#463C4B"/>
<path d="M39.8438 4.6875H25.7812C20.6036 4.6875 16.4062 8.88486 16.4062 14.0625V16.4062H39.8438V4.6875Z" fill="#08C25E"/>
<path d="M39.8438 4.6875H63.2812V16.4062H39.8438V4.6875Z" fill="#FABE19"/>
<path d="M63.2812 4.6875H86.7188V16.4062H63.2812V4.6875Z" fill="#08C25E"/>
<path d="M86.7188 4.6875H110.156V16.4062H86.7188V4.6875Z" fill="#FABE19"/>
<path d="M124.219 4.6875H110.156V16.4062H133.594V14.0625C133.594 8.88486 129.396 4.6875 124.219 4.6875Z" fill="#08C25E"/>
<path d="M28.125 28.125C21.653 28.125 16.4062 22.8782 16.4062 16.4062H39.8438C39.8438 22.8782 34.597 28.125 28.125 28.125Z" fill="#007536"/>
<path d="M51.5625 28.125C45.0905 28.125 39.8438 22.8782 39.8438 16.4062H63.2812C63.2812 22.8782 58.0345 28.125 51.5625 28.125Z" fill="#F5871E"/>
<path d="M75 28.125C68.528 28.125 63.2812 22.8782 63.2812 16.4062H86.7188C86.7188 22.8782 81.472 28.125 75 28.125Z" fill="#007536"/>
<path d="M98.4375 28.125C91.9655 28.125 86.7188 22.8782 86.7188 16.4062H110.156C110.156 22.8782 104.909 28.125 98.4375 28.125Z" fill="#F5871E"/>
<path d="M121.875 28.125C115.403 28.125 110.156 22.8782 110.156 16.4062H133.594C133.594 22.8782 128.347 28.125 121.875 28.125Z" fill="#007536"/>
<path d="M63.2812 96.0938H49.2188V89.0625C49.2188 87.7682 50.2682 86.7188 51.5625 86.7188H60.9375C62.2318 86.7188 63.2812 87.7682 63.2812 89.0625V96.0938Z" fill="#007536"/>
<path d="M56.25 96.0938H49.2188V89.0625C49.2188 87.7682 50.2682 86.7188 51.5625 86.7188H53.9062C55.2006 86.7188 56.25 87.7682 56.25 89.0625V96.0938Z" fill="#08C25E"/>
<path d="M56.25 138.281C51.0724 138.281 46.875 134.084 46.875 128.906V98.4375C46.875 97.1432 47.9244 96.0938 49.2188 96.0938H63.2812C64.5756 96.0938 65.625 97.1432 65.625 98.4375V128.906C65.625 134.084 61.4276 138.281 56.25 138.281Z" fill="#F06423"/>
<path d="M51.5625 133.594C48.9735 133.594 46.875 131.495 46.875 128.906V98.4375C46.875 97.1432 47.9244 96.0938 49.2188 96.0938H56.25V128.906C56.25 131.495 54.1515 133.594 51.5625 133.594Z" fill="#FAA019"/>
<path d="M51.5625 72.6562H60.9375V86.7188H51.5625V72.6562Z" fill="#A5C3DC"/>
<path d="M67.8126 39.8488C66.5669 39.9294 65.625 41.0195 65.625 42.2678V59.7657C65.625 61.7072 64.0509 63.2813 62.1094 63.2813C60.1679 63.2813 58.5938 61.7072 58.5938 59.7657V42.2678C58.5938 41.0195 57.6519 39.9296 56.4062 39.8488C55.0409 39.7606 53.9062 40.8414 53.9062 42.1876V59.7657C53.9062 61.7072 52.3321 63.2813 50.3906 63.2813C48.4491 63.2813 46.875 61.7072 46.875 59.7657V42.2678C46.875 41.0195 45.9331 39.9296 44.6874 39.8488C43.3222 39.7606 42.1875 40.8414 42.1875 42.1876V63.2813C42.1875 68.4589 46.3849 72.6563 51.5625 72.6563H60.9375C66.1151 72.6563 70.3125 68.4589 70.3125 63.2813V42.1876C70.3125 40.8414 69.1778 39.7606 67.8126 39.8488Z" fill="#A5C3DC"/>
<path d="M44.5312 65.6252C43.2369 65.6252 42.1875 64.5758 42.1875 63.2815V42.1877C42.1875 40.8934 43.2369 39.844 44.5312 39.844C45.8256 39.844 46.875 40.8934 46.875 42.1877V63.2815C46.875 64.5758 45.8256 65.6252 44.5312 65.6252Z" fill="#D7E6F0"/>
<path d="M51.5625 72.6562H56.25V86.7188H51.5625V72.6562Z" fill="#D7E6F0"/>
<path d="M100.781 96.0938H86.7188V89.0625C86.7188 87.7682 87.7682 86.7188 89.0625 86.7188H98.4375C99.7318 86.7188 100.781 87.7682 100.781 89.0625V96.0938Z" fill="#007536"/>
<path d="M93.75 96.0938H86.7188V89.0625C86.7188 87.7682 87.7682 86.7188 89.0625 86.7188H91.4062C92.7006 86.7188 93.75 87.7682 93.75 89.0625V96.0938Z" fill="#08C25E"/>
<path d="M93.75 138.281C88.5724 138.281 84.375 134.084 84.375 128.906V98.4375C84.375 97.1432 85.4244 96.0938 86.7188 96.0938H100.781C102.076 96.0938 103.125 97.1432 103.125 98.4375V128.906C103.125 134.084 98.9276 138.281 93.75 138.281Z" fill="#F06423"/>
<path d="M89.0625 133.594C86.4735 133.594 84.375 131.495 84.375 128.906V98.4375C84.375 97.1432 85.4244 96.0938 86.7188 96.0938H93.75V128.906C93.75 131.495 91.6515 133.594 89.0625 133.594Z" fill="#FAA019"/>
<path d="M89.0625 72.6562H98.4375V86.7188H89.0625V72.6562Z" fill="#A5C3DC"/>
<path d="M89.0625 72.6562H93.75V86.7188H89.0625V72.6562Z" fill="#D7E6F0"/>
<path d="M93.75 77.3438C85.9834 77.3438 79.6875 71.0479 79.6875 63.2812V53.9062C79.6875 46.1396 85.9834 39.8438 93.75 39.8438C101.517 39.8438 107.812 46.1396 107.812 53.9062V63.2812C107.812 71.0479 101.517 77.3438 93.75 77.3438Z" fill="#A5C3DC"/>
<path d="M82.0312 65.625C80.7369 65.625 79.6875 64.5756 79.6875 63.2812V53.9062C79.6875 46.1522 85.9957 39.8438 93.75 39.8438C95.0443 39.8438 96.0938 40.8932 96.0938 42.1875C96.0938 43.4818 95.0443 44.5312 93.75 44.5312C88.5806 44.5312 84.375 48.7368 84.375 53.9062V63.2812C84.375 64.5756 83.3256 65.625 82.0312 65.625Z" fill="#D7E6F0"/>
</svg>
